<svg width="286" height="209" viewBox="0 0 286 209" fill="none" xmlns="http://www.w3.org/2000/svg">
<path fill-rule="evenodd" clip-rule="evenodd" d="M271.34 52.5277C251.814 33.0015 220.155 33.0015 200.629 52.5277L129.919 123.238C110.392 142.765 110.392 174.423 129.919 193.949C149.445 213.475 181.103 213.475 200.629 193.949L271.34 123.238C290.866 103.712 290.866 72.0539 271.34 52.5277ZM156.081 15.051C136.555 -4.47519 104.897 -4.4752 85.3708 15.051L14.6601 85.7617C-4.86609 105.288 -4.86609 136.946 14.6601 156.472C34.1863 175.999 65.8446 175.999 85.3708 156.472L156.081 85.7617C175.608 66.2355 175.608 34.5772 156.081 15.051Z" fill="#171616"/>
</svg>
